<?xml version="1.0" encoding="utf-8"?>
<!-- Generator: Adobe Illustrator 27.5.0, SVG Export Plug-In . SVG Version: 6.00 Build 0)  -->
<svg version="1.1" xmlns="http://www.w3.org/2000/svg" xmlns:xlink="http://www.w3.org/1999/xlink" x="0px" y="0px"
	 viewBox="0 0 576 512" style="enable-background:new 0 0 576 512;" xml:space="preserve">
<style type="text/css">
	.st0{stroke:#FFFFFF;stroke-width:6;stroke-miterlimit:10;}
</style>
<g id="Слой_2">
</g>
<g id="Слой_1">
	<path class="st0" d="M15.9,90.6c-12.2-12.2-12.2-31.9,0-44.1s32-12.2,44.2,0l187.5,187.5c12.2,12.2,12.2,32,0,44.2L60.2,465.7
		c-12.2,12.2-32,12.2-44.2,0c-12.2-12.2-12.2-32,0-44.2L181.3,256L15.9,90.6z M256.7,412.3H538c17.3,0,31.3,14,31.3,31.3
		c0,17.3-14,31.3-31.3,31.3H256.7c-17.3,0-31.3-14-31.3-31.3C225.5,426.2,239.5,412.3,256.7,412.3z"/>
</g>
</svg>
